# xmcd
#
# Track frame offsets: 
#        150
#        15217
#        26803
#        37514
#        48690
#        59682
#        70411
#        81886
#        93286
#        106371
#        120894
#        134972
#        144552
#        154634
#        164234
#        175161
#        185563
#        196813
#        206128
#        218118
#
# Disc length: 3053 seconds
#
# Revision: 0
# Processed by: cddbd v1.5.2PL0 Copyright (c) Steve Scherf et al.
# Submitted via: ExactAudioCopy v1.0b3
#
DISCID=210beb14
DTITLE=Reno and Smiley and The Tennessee Cut-Ups - Reno and Smiley 1959-63 C
DTITLE=D1
DYEAR=2011
DGENRE=Bluegrass
TTITLE0=I Need The Prayers
TTITLE1=In The Garden
TTITLE2=The Arm Of God
TTITLE3=Jesus Will Save Your Soul
TTITLE4=I Feel Like Traveling On
TTITLE5=The Lord's Last Supper
TTITLE6=Little Country Preacher
TTITLE7=He Will Set Your Fields On Fire
TTITLE8=Whisperling Hope
TTITLE9=Mother's Only Sleeping
TTITLE10=I'll Meet You In The Morning
TTITLE11=The Bells Of Saint Mary's
TTITLE12=Steel Guitar Rag
TTITLE13=Tennessee Stomp
TTITLE14=Pick And Hold
TTITLE15=Down On The Farm
TTITLE16=Love, Please Come Home
TTITLE17=Bringin' In The Georgia Mail
TTITLE18=Please Remember That I Love You
TTITLE19=Unfaithful One
EXTD=
EXTT0=
EXTT1=
EXTT2=
EXTT3=
EXTT4=
EXTT5=
EXTT6=
EXTT7=
EXTT8=
EXTT9=
EXTT10=
EXTT11=
EXTT12=
EXTT13=
EXTT14=
EXTT15=
EXTT16=
EXTT17=
EXTT18=
EXTT19=
PLAYORDER=
